HIERARCHY
ROOT Hips
{
  OFFSET -398.677 77.0508 928.302
  CHANNELS 6 Xposition Yposition Zposition Zrotation Xrotation Yrotation
  JOINT Spine
  {
    OFFSET 0 8 -1.24694e-05
    CHANNELS 6 Xposition Yposition Zposition Zrotation Xrotation Yrotation
    JOINT Spine1
    {
      OFFSET 4.7334e-05 7.99993 0.0337912
      CHANNELS 6 Xposition Yposition Zposition Zrotation Xrotation Yrotation
      JOINT Spine2
      {
        OFFSET -1.74273e-05 8.00001 2.77834e-05
        CHANNELS 6 Xposition Yposition Zposition Zrotation Xrotation Yrotation
        JOINT Spine3
        {
          OFFSET 0 8 0
          CHANNELS 6 Xposition Yposition Zposition Zrotation Xrotation Yrotation
          JOINT Neck
          {
            OFFSET 0.00028341 17 0.000290233
            CHANNELS 6 Xposition Yposition Zposition Zrotation Xrotation Yrotation
            JOINT Head
            {
              OFFSET -3.80013e-05 10.8 -6.14241e-05
              CHANNELS 6 Xposition Yposition Zposition Zrotation Xrotation Yrotation
              End Site
              {
                OFFSET 0 20.25 0
              }
            }
          }
          JOINT LeftShoulder
          {
            OFFSET 5.00027 16.9999 0.000128345
            CHANNELS 6 Xposition Yposition Zposition Zrotation Xrotation Yrotation
            JOINT LeftShoulder2
            {
              OFFSET 6.45 0 0
              CHANNELS 6 Xposition Yposition Zposition Zrotation Xrotation Yrotation
              JOINT LeftArm
              {
                OFFSET 6.45003 -4.64608e-05 0.000255701
                CHANNELS 6 Xposition Yposition Zposition Zrotation Xrotation Yrotation
                JOINT LeftForeArm
                {
                  OFFSET -5.09706e-05 -32.4 -2.03067
                  CHANNELS 6 Xposition Yposition Zposition Zrotation Xrotation Yrotation
                  JOINT LeftHand
                  {
                    OFFSET 7.22777e-05 -25.6513 2.00002
                    CHANNELS 6 Xposition Yposition Zposition Zrotation Xrotation Yrotation
                    JOINT LeftHandThumb1
                    {
                      OFFSET -0.49999 -1.49993 2.64993
                      CHANNELS 6 Xposition Yposition Zposition Zrotation Xrotation Yrotation
                      JOINT LeftHandThumb2
                      {
                        OFFSET -6.22025e-05 -3.80001 3.69997
                        CHANNELS 6 Xposition Yposition Zposition Zrotation Xrotation Yrotation
                        JOINT LeftHandThumb3
                        {
                          OFFSET -7.64181e-05 -2.99992 2.70002
                          CHANNELS 6 Xposition Yposition Zposition Zrotation Xrotation Yrotation
                          End Site
                          {
                            OFFSET 3.94638e-05 -2.29997 1.8
                          }
                        }
                      }
                    }
                    JOINT LeftHandIndex
                    {
                      OFFSET -2.67255e-05 -1.90002 1.60004
                      CHANNELS 6 Xposition Yposition Zposition Zrotation Xrotation Yrotation
                      JOINT LeftHandIndex1
                      {
                        OFFSET 0 -8.30002 1.89997
                        CHANNELS 6 Xposition Yposition Zposition Zrotation Xrotation Yrotation
                        JOINT LeftHandIndex2
                        {
                          OFFSET -1.54504e-05 -4.49997 -4.66625e-05
                          CHANNELS 6 Xposition Yposition Zposition Zrotation Xrotation Yrotation
                          JOINT LeftHandIndex3
                          {
                            OFFSET 3.92024e-05 -3.40001 -1.54816e-05
                            CHANNELS 6 Xposition Yposition Zposition Zrotation Xrotation Yrotation
                            End Site
                            {
                              OFFSET -5.92645e-05 -2.60007 5.53351e-05
                            }
                          }
                        }
                      }
                    }
                    JOINT LeftHandMiddle
                    {
                      OFFSET -0.250019 -2.19998 0.400082
                      CHANNELS 6 Xposition Yposition Zposition Zrotation Xrotation Yrotation
                      JOINT LeftHandMiddle1
                      {
                        OFFSET -2.16415e-05 -8.30003 1.01167
                        CHANNELS 6 Xposition Yposition Zposition Zrotation Xrotation Yrotation
                        JOINT LeftHandMiddle2
                        {
                          OFFSET 0 -4.65001 0
                          CHANNELS 6 Xposition Yposition Zposition Zrotation Xrotation Yrotation
                          JOINT LeftHandMiddle3
                          {
                            OFFSET -2.95985e-05 -3.30002 0
                            CHANNELS 6 Xposition Yposition Zposition Zrotation Xrotation Yrotation
                            End Site
                            {
                              OFFSET -1.46459e-05 -2.69994 3.48108e-05
                            }
                          }
                        }
                      }
                    }
                    JOINT LeftHandRing
                    {
                      OFFSET -0.500047 -2.04703 -0.799986
                      CHANNELS 6 Xposition Yposition Zposition Zrotation Xrotation Yrotation
                      JOINT LeftHandRing1
                      {
                        OFFSET 4.62632e-05 -7.82002 -0.200027
                        CHANNELS 6 Xposition Yposition Zposition Zrotation Xrotation Yrotation
                        JOINT LeftHandRing2
                        {
                          OFFSET -0.0229268 -3.79998 7.72793e-05
                          CHANNELS 6 Xposition Yposition Zposition Zrotation Xrotation Yrotation
                          JOINT LeftHandRing3
                          {
                            OFFSET 2.29338e-05 -3.39993 5.54878e-05
                            CHANNELS 6 Xposition Yposition Zposition Zrotation Xrotation Yrotation
                            End Site
                            {
                              OFFSET 3.40857e-05 -2.60005 -4.62402e-05
                            }
                          }
                        }
                      }
                    }
                    JOINT LeftHandPinky
                    {
                      OFFSET -0.749978 -1.74999 -1.84999
                      CHANNELS 6 Xposition Yposition Zposition Zrotation Xrotation Yrotation
                      JOINT LeftHandPinky1
                      {
                        OFFSET 4.59282e-05 -7.15004 -1.00003
                        CHANNELS 6 Xposition Yposition Zposition Zrotation Xrotation Yrotation
                        JOINT LeftHandPinky2
                        {
                          OFFSET 0.0366018 -2.99995 -5.50289e-05
                          CHANNELS 6 Xposition Yposition Zposition Zrotation Xrotation Yrotation
                          JOINT LeftHandPinky3
                          {
                            OFFSET -5.62416e-05 -2.35004 7.3063e-05
                            CHANNELS 6 Xposition Yposition Zposition Zrotation Xrotation Yrotation
                            End Site
                            {
                              OFFSET 1.4356e-05 -2.10008 0
                            }
                          }
                        }
                      }
                    }
                  }
                }
              }
            }
          }
          JOINT RightShoulder
          {
            OFFSET -4.99969 17.0001 0.000442948
            CHANNELS 6 Xposition Yposition Zposition Zrotation Xrotation Yrotation
            JOINT RightShoulder2
            {
              OFFSET -6.45 0 0
              CHANNELS 6 Xposition Yposition Zposition Zrotation Xrotation Yrotation
              JOINT RightArm
              {
                OFFSET -6.45004 4.00128e-05 3.31447e-05
                CHANNELS 6 Xposition Yposition Zposition Zrotation Xrotation Yrotation
                JOINT RightForeArm
                {
                  OFFSET 3.85487e-05 -32.4 -2.00005
                  CHANNELS 6 Xposition Yposition Zposition Zrotation Xrotation Yrotation
                  JOINT RightHand
                  {
                    OFFSET 0.0473161 -25.6499 2.00007
                    CHANNELS 6 Xposition Yposition Zposition Zrotation Xrotation Yrotation
                    JOINT RightHandThumb1
                    {
                      OFFSET 0.50001 -1.50006 2.65003
                      CHANNELS 6 Xposition Yposition Zposition Zrotation Xrotation Yrotation
                      JOINT RightHandThumb2
                      {
                        OFFSET 0.0372775 -3.8 3.70005
                        CHANNELS 6 Xposition Yposition Zposition Zrotation Xrotation Yrotation
                        JOINT RightHandThumb3
                        {
                          OFFSET 0.00295093 -3 2.69999
                          CHANNELS 6 Xposition Yposition Zposition Zrotation Xrotation Yrotation
                          End Site
                          {
                            OFFSET -7.47582e-05 -2.29999 1.8
                          }
                        }
                      }
                    }
                    JOINT RightHandIndex
                    {
                      OFFSET 0 -1.89999 1.60004
                      CHANNELS 6 Xposition Yposition Zposition Zrotation Xrotation Yrotation
                      JOINT RightHandIndex1
                      {
                        OFFSET 3.02421e-05 -8.30001 1.90001
                        CHANNELS 6 Xposition Yposition Zposition Zrotation Xrotation Yrotation
                        JOINT RightHandIndex2
                        {
                          OFFSET -2.41296e-05 -4.49999 0.0140041
                          CHANNELS 6 Xposition Yposition Zposition Zrotation Xrotation Yrotation
                          JOINT RightHandIndex3
                          {
                            OFFSET -2.27996e-05 -3.40002 -5.65849e-05
                            CHANNELS 6 Xposition Yposition Zposition Zrotation Xrotation Yrotation
                            End Site
                            {
                              OFFSET -2.76317e-05 -2.60001 7.11214e-05
                            }
                          }
                        }
                      }
                    }
                    JOINT RightHandMiddle
                    {
                      OFFSET 0.250083 -2.20005 0.399967
                      CHANNELS 6 Xposition Yposition Zposition Zrotation Xrotation Yrotation
                      JOINT RightHandMiddle1
                      {
                        OFFSET 0 -8.30002 1.00226
                        CHANNELS 6 Xposition Yposition Zposition Zrotation Xrotation Yrotation
                        JOINT RightHandMiddle2
                        {
                          OFFSET 3.94467e-05 -4.6499 -4.75276e-05
                          CHANNELS 6 Xposition Yposition Zposition Zrotation Xrotation Yrotation
                          JOINT RightHandMiddle3
                          {
                            OFFSET -4.89258e-05 -3.27088 3.04454e-05
                            CHANNELS 6 Xposition Yposition Zposition Zrotation Xrotation Yrotation
                            End Site
                            {
                              OFFSET -4.87178e-05 -2.69996 -4.19491e-05
                            }
                          }
                        }
                      }
                    }
                    JOINT RightHandRing
                    {
                      OFFSET 0.499928 -2.14996 -0.800018
                      CHANNELS 6 Xposition Yposition Zposition Zrotation Xrotation Yrotation
                      JOINT RightHandRing1
                      {
                        OFFSET 0 -7.74996 -0.199931
                        CHANNELS 6 Xposition Yposition Zposition Zrotation Xrotation Yrotation
                        JOINT RightHandRing2
                        {
                          OFFSET 3.27427e-05 -3.80001 0
                          CHANNELS 6 Xposition Yposition Zposition Zrotation Xrotation Yrotation
                          JOINT RightHandRing3
                          {
                            OFFSET -5.05678e-05 -3.40005 -4.29689e-05
                            CHANNELS 6 Xposition Yposition Zposition Zrotation Xrotation Yrotation
                            End Site
                            {
                              OFFSET 6.23642e-05 -2.60001 8.15593e-05
                            }
                          }
                        }
                      }
                    }
                    JOINT RightHandPinky
                    {
                      OFFSET 0.75 -1.75 -1.84426
                      CHANNELS 6 Xposition Yposition Zposition Zrotation Xrotation Yrotation
                      JOINT RightHandPinky1
                      {
                        OFFSET 6.03101e-05 -7.15004 -0.999991
                        CHANNELS 6 Xposition Yposition Zposition Zrotation Xrotation Yrotation
                        JOINT RightHandPinky2
                        {
                          OFFSET 4.41694e-05 -2.99999 8.07906e-05
                          CHANNELS 6 Xposition Yposition Zposition Zrotation Xrotation Yrotation
                          JOINT RightHandPinky3
                          {
                            OFFSET 0 -2.34999 -5.56377e-05
                            CHANNELS 6 Xposition Yposition Zposition Zrotation Xrotation Yrotation
                            End Site
                            {
                              OFFSET 3.31768e-05 -2.10404 0.00948043
                            }
                          }
                        }
                      }
                    }
                  }
                }
              }
            }
          }
        }
      }
    }
  }
  JOINT LeftUpLeg
  {
    OFFSET 8 0 0
    CHANNELS 6 Xposition Yposition Zposition Zrotation Xrotation Yrotation
    JOINT LeftLeg
    {
      OFFSET -5.1379e-05 -45 -1.00006
      CHANNELS 6 Xposition Yposition Zposition Zrotation Xrotation Yrotation
      JOINT LeftFoot
      {
        OFFSET -3.36383e-05 -41 -1.99998
        CHANNELS 6 Xposition Yposition Zposition Zrotation Xrotation Yrotation
        JOINT LeftToeBase
        {
          OFFSET -5.00342e-05 -7.5 12.4999
          CHANNELS 6 Xposition Yposition Zposition Zrotation Xrotation Yrotation
          JOINT LeftFootToe
          {
            OFFSET 0 0 4
            CHANNELS 6 Xposition Yposition Zposition Zrotation Xrotation Yrotation
            End Site
            {
              OFFSET 0 0 0
            }
          }
        }
      }
    }
  }
  JOINT RightUpLeg
  {
    OFFSET -8 0 0
    CHANNELS 6 Xposition Yposition Zposition Zrotation Xrotation Yrotation
    JOINT RightLeg
    {
      OFFSET 0 -45 -1.00005
      CHANNELS 6 Xposition Yposition Zposition Zrotation Xrotation Yrotation
      JOINT RightFoot
      {
        OFFSET -0.000109601 -41 -1.99993
        CHANNELS 6 Xposition Yposition Zposition Zrotation Xrotation Yrotation
        JOINT RightToeBase
        {
          OFFSET 5.3899e-05 -7.50001 12.5
          CHANNELS 6 Xposition Yposition Zposition Zrotation Xrotation Yrotation
          JOINT RightFootToe
          {
            OFFSET 0 0 4
            CHANNELS 6 Xposition Yposition Zposition Zrotation Xrotation Yrotation
            End Site
            {
              OFFSET 0 0 0
            }
          }
        }
      }
    }
  }
}
MOTION
Frames:	3
Frame Time:	0.0111111
-385.005 74.73 931.888 -4.3688 2.57977 -172.709 0 8 0 7.107 13.1146 -3.97554 0 8 0 1.43492 8.36696 -1.87895 0 8 0 0.682184 4.19534 -0.912042 0 8 -1.13687e-13 0.679877 4.18363 -0.909575 -5.68434e-14 17 0 4.36703 -3.06524 -12.1286 -2.84217e-14 10.8 0 9.09529 -8.5595 -28.2845 5 17 0 3.26614 -4.109 -4.63929 6.45 0 1.13687e-13 -1.78467 0.182553 -0.0830706 6.45 0 -1.13687e-13 56.9927 -11.8828 43.5908 0 -32.4 -2 -61.4661 -69.5041 -55.3841 0 -25.65 2 35.3236 -21.3066 -21.9432 -0.5 -1.5 2.65 -27.588 0.0989648 0.285906 0 -3.8 3.7 -0.0299189 6.49875 -0.0138914 0 -3 2.7 -0.0577314 12.0048 0.071595 0 -1.9 1.6 -4.9044e-06 1.35201e-05 1.67398e-05 -1.13687e-13 -8.3 1.9 -35.1018 21.1617 7.51149 0 -4.5 0 -23.9142 -0.0664138 -0.0536519 -2.84217e-14 -3.4 0 -16.7283 -0.0406899 -0.0449111 -0.25 -2.2 0.4 -4.9044e-06 1.35201e-05 1.67398e-05 0 -8.3 1 -45.1081 28.5123 15.1378 -5.68434e-14 -4.65 0 -33.0646 0.00141995 0.0103487 5.68434e-14 -3.3 0 -21.9383 0.00978034 0.00659102 -0.5 -2.15 -0.8 -4.9044e-06 1.35201e-05 1.67398e-05 0 -7.75 -0.2 -80.2914 8.01987 15.2845 5.68434e-14 -3.8 -1.13687e-13 -72.2357 0.00302548 0.0056781 0 -3.4 0 -52.437 -0.0044835 0.006378 -0.75 -1.75 -1.85 -4.9044e-06 1.35201e-05 1.67398e-05 0 -7.15 -1 -88.91 2.50084 18.0843 1.13687e-13 -3 0 -51.5464 0.0113906 -0.00472406 0 -2.35 0 -27.9571 0.00730179 -0.000908316 -5 17 0 10.9227 -2.61548 1.54359 -6.45 0 -1.13687e-13 -1.20814 -0.0673768 -5.85248 -6.45 0 0 -65.5203 -24.8122 -70.1244 0 -32.4 -2 -5.78519 -11.5813 -44.2996 0 -25.65 2 -22.4828 3.64495 -12.7474 0.5 -1.5 2.65 21.3036 6.37188 9.48654 1.13687e-13 -3.8 3.7 0.359129 43.1722 -0.0049583 0 -3 2.7 0.0318194 14.2243 0.0556895 0 -1.9 1.6 -6.3335e-05 2.64146e-05 -2.86555e-05 0 -8.3 1.9 1.96184 -10.6806 0.136832 0 -4.5 -2.84217e-14 1.96557 -0.00108572 0.0251137 0 -3.4 0 7.33602e-06 -0.00165784 0.0247665 0.25 -2.2 0.4 -6.3335e-05 2.64146e-05 -2.86555e-05 0 -8.3 1 6.13563 -6.70234 0.177431 0 -4.65 0 5.48236 0.00281957 0.000332887 -1.13687e-13 -3.3 2.84217e-14 3.67903 0.00255584 -0.0710155 0.5 -2.15 -0.8 -6.3335e-05 2.64146e-05 -2.86555e-05 1.13687e-13 -7.75 -0.2 15.7289 0.128019 -0.517715 0 -3.8 -2.84217e-14 11.4544 -0.0595433 0.0143382 0 -3.4 -2.84217e-14 9.86155 -0.0442979 0.0181452 0.75 -1.75 -1.85 -6.3335e-05 2.64146e-05 -2.86555e-05 0 -7.15 -1 20.0969 2.61559 -1.13017 -1.13687e-13 -3 2.84217e-14 59.4829 -0.0289131 0.0526299 2.84217e-14 -2.35 -5.68434e-14 41.7033 0.00914382 0.0464389 8 0 1.13687e-13 23.2625 -59.2656 17.4232 2.27374e-13 -45 -1 2.20656 55.9615 -4.75661 0 -41 -2 -13.3837 8.13108 4.03938 -1.13687e-13 -7.5 12.5 4.27424e-06 -4.90357e-06 -9.23313e-06 0 1.77636e-15 4 -8.06973 -3.81728 -21.9891 -8 0 0 9.81454 -61.309 -2.41415 5.68434e-14 -45 -1 -7.28427 80.7335 16.6333 0 -41 -2 -18.5417 14.2362 14.688 0 -7.5 12.5 1.87775e-07 -4.3745 -4.05563e-05 1.13687e-13 -5.68434e-14 4 12.1697 4.78294 -2.6187 
-384.911 74.7142 932.052 -4.47651 2.69995 -172.805 0 8 0 7.02088 13.0287 -4.0647 0 8 0 1.4137 8.35227 -1.91678 -5.68434e-14 8 0 0.670964 4.188 -0.931376 0 8 0 0.66891 4.17681 -0.928407 0 17 0 4.33481 -3.08869 -12.2538 0 10.8 -1.13687e-13 9.00031 -8.61615 -28.5885 5 17 0 3.17887 -4.21438 -4.7679 6.45 -5.68434e-14 1.13687e-13 -1.80386 0.156907 -0.104032 6.45 -5.68434e-14 0 57.2572 -11.819 43.1253 0 -32.4 -2 -59.4509 -69.4787 -53.5358 0 -25.65 2 35.575 -21.2662 -21.302 -0.5 -1.5 2.65 -28.6872 -0.111702 -0.203587 0 -3.8 3.7 -0.0184248 7.05673 -0.0321752 0 -3 2.7 -0.0679682 11.0321 0.0853988 0 -1.9 1.6 -4.9044e-06 1.35201e-05 1.67398e-05 0 -8.3 1.9 -33.4009 21.321 7.1696 0 -4.5 0 -27.757 -0.0225601 -0.0321914 0 -3.4 0 -19.3412 -0.0117576 -0.0235983 -0.25 -2.2 0.4 -4.9044e-06 1.35201e-05 1.67398e-05 -1.13687e-13 -8.3 1 -44.1152 28.7323 14.9553 -5.68434e-14 -4.65 1.13687e-13 -32.9379 -0.00292344 0.00332086 -5.68434e-14 -3.3 0 -21.8627 0.00978034 0.0019998 -0.5 -2.15 -0.8 -4.9044e-06 1.35201e-05 1.67398e-05 0 -7.75 -0.2 -81.3557 7.75142 15.6539 1.13687e-13 -3.8 0 -71.5029 0.0088151 0.00565206 1.13687e-13 -3.4 0 -51.5976 0.00096826 0.0105688 -0.75 -1.75 -1.85 -4.9044e-06 1.35201e-05 1.67398e-05 0 -7.15 -1 -89.3787 1.62869 17.7947 -5.68434e-14 -3 0 -52.1217 0.0143347 -0.00604352 0 -2.35 0 -28.311 0.00933582 -0.000831977 -5 17 0 10.984 -2.65218 1.52364 -6.45 0 -1.13687e-13 -1.21813 -0.0772763 -5.87532 -6.45 0 1.13687e-13 -65.5821 -25.2507 -69.8497 0 -32.4 -2 -5.99492 -10.9569 -43.73 1.13687e-13 -25.65 2 -22.9969 3.38105 -12.2903 0.5 -1.5 2.65 22.0771 6.46678 8.37854 0 -3.8 3.7 0.359129 43.1722 -0.0049583 1.13687e-13 -3 2.7 0.0318194 14.2243 0.0556895 0 -1.9 1.6 -6.3335e-05 2.64146e-05 -2.86555e-05 0 -8.3 1.9 2.34011 -10.826 0.180582 0 -4.5 0 1.96557 -0.00108572 0.0226714 0 -3.4 -2.84217e-14 7.26601e-06 -0.00165784 0.0223468 0.25 -2.2 0.4 -6.3335e-05 2.64146e-05 -2.86555e-05 0 -8.3 1 7.24751 -6.57222 0.202239 0 -4.65 -2.84217e-14 5.71575 0.0022093 0.000332887 1.13687e-13 -3.3 2.84217e-14 3.89157 0.00211486 -0.0694673 0.5 -2.15 -0.8 -6.3335e-05 2.64146e-05 -2.86555e-05 1.13687e-13 -7.75 -0.2 18.7851 0.545737 -0.699429 1.13687e-13 -3.8 0 10.8109 -0.0906917 0.021698 0 -3.4 5.68434e-14 9.34927 -0.067825 0.0274269 0.75 -1.75 -1.85 -6.3335e-05 2.64146e-05 -2.86555e-05 0 -7.15 -1 23.9928 2.93976 -1.45095 -1.13687e-13 -3 0 58.5105 -0.0497378 0.0853977 -2.84217e-14 -2.35 2.84217e-14 40.9279 0.0130806 0.0767218 8 0 1.13687e-13 23.2638 -59.0553 17.4693 -1.13687e-13 -45 -1 2.1456 55.6596 -4.65727 0 -41 -2 -13.4295 8.52125 4.13149 0 -7.5 12.5 4.27424e-06 -4.90357e-06 -9.23313e-06 0 -1.77636e-15 4 -8.11053 -3.89343 -22.0093 -8 0 0 10.0369 -61.2884 -2.26353 5.68434e-14 -45 -1 -7.31959 80.6527 16.6726 0 -41 -2 -18.5555 14.4731 14.434 1.13687e-13 -7.5 12.5 7.88346e-07 -3.52762 -4.05149e-05 0 5.68434e-14 4 12.2509 3.93025 -2.42627 
-384.831 74.7096 932.205 -4.56658 2.80025 -172.897 -5.68434e-14 8 0 6.94375 12.9504 -4.1582 -5.68434e-14 8 0 1.39621 8.33349 -1.95825 -5.68434e-14 8 0 0.661562 4.17864 -0.952478 5.68434e-14 8 0 0.658869 4.16753 -0.947765 -5.68434e-14 17 -1.13687e-13 4.28154 -3.11431 -12.4301 0 10.8 0 8.85023 -8.67663 -29.0183 5 17 0 3.08727 -4.31897 -4.88039 6.45 -5.68434e-14 -1.13687e-13 -1.81985 0.121092 -0.127975 6.45 0 -1.13687e-13 57.5262 -11.6703 42.7405 0 -32.4 -2 -58.0497 -69.4133 -52.2279 0 -25.65 2 35.7198 -21.0438 -20.7879 -0.5 -1.5 2.65 -29.743 -0.371197 -0.746652 0 -3.8 3.7 -0.016506 8.01642 -0.0504821 0 -3 2.7 -0.0645399 10.1758 0.080302 0 -1.9 1.6 -4.9044e-06 1.35201e-05 1.67398e-05 1.13687e-13 -8.3 1.9 -31.9943 21.3567 6.86288 0 -4.5 0 -31.1363 -0.00150925 -0.0186968 -2.84217e-14 -3.4 0 -21.5558 0.003764 -0.0110479 -0.25 -2.2 0.4 -4.9044e-06 1.35201e-05 1.67398e-05 1.13687e-13 -8.3 1 -43.1398 28.9101 14.7527 -5.68434e-14 -4.65 0 -33.1354 -0.00513008 -0.000481659 -5.68434e-14 -3.3 0 -21.9811 0.00876357 -0.000564615 -0.5 -2.15 -0.8 -4.9044e-06 1.35201e-05 1.67398e-05 0 -7.75 -0.2 -82.2079 7.47917 15.9222 0 -3.8 0 -70.4829 0.00649053 0.0106651 1.13687e-13 -3.4 0 -50.5181 -0.00299479 0.0125726 -0.75 -1.75 -1.85 -4.9044e-06 1.35201e-05 1.67398e-05 0 -7.15 -1 -89.6952 0.96806 17.5664 0 -3 0 -52.2916 0.0108072 5.08311e-05 -1.13687e-13 -2.35 0 -28.4178 0.00635242 0.00225734 -5 17 0 11.0587 -2.7146 1.49717 -6.45 0 0 -1.23258 -0.0783579 -5.88218 -6.45 5.68434e-14 0 -65.6256 -25.6409 -69.5363 1.13687e-13 -32.4 -2 -6.20162 -10.3948 -43.1375 1.13687e-13 -25.65 2 -23.5499 2.96679 -11.6506 0.5 -1.5 2.65 22.8955 6.62706 6.99613 -1.13687e-13 -3.8 3.7 0.359129 43.1722 -0.0049583 0 -3 2.7 0.0318194 14.2243 0.0556895 0 -1.9 1.6 -6.3335e-05 2.64146e-05 -2.86555e-05 0 -8.3 1.9 3.1093 -10.9119 0.265331 0 -4.5 0 1.96557 -0.00108572 0.0201716 0 -3.4 2.84217e-14 7.19414e-06 -0.00165784 0.0198631 0.25 -2.2 0.4 -6.3335e-05 2.64146e-05 -2.86555e-05 -1.13687e-13 -8.3 1 8.53132 -6.44022 0.23044 1.13687e-13 -4.65 2.84217e-14 5.67693 -0.00549304 0.000332887 -1.13687e-13 -3.3 0 3.85207 -0.00499091 -0.0678982 0.5 -2.15 -0.8 -6.3335e-05 2.64146e-05 -2.86555e-05 0 -7.75 -0.2 21.7624 0.821792 -0.892401 0 -3.8 -2.84217e-14 9.89472 -0.109193 0.0216731 0 -3.4 0 8.61043 -0.0830506 0.0290197 0.75 -1.75 -1.85 -6.3335e-05 2.64146e-05 -2.86555e-05 0 -7.15 -1 27.6374 3.04596 -1.75107 0 -3 -2.84217e-14 57.3957 -0.0689303 0.105159 -8.52651e-14 -2.35 2.84217e-14 40.0561 0.0111891 0.0976872 8 0 0 23.2624 -58.8622 17.5145 0 -45 -1 2.10076 55.3651 -4.57554 0 -41 -2 -13.469 8.87223 4.25862 0 -7.5 12.5 4.27424e-06 -4.90357e-06 -9.23313e-06 0 -1.77636e-15 4 -8.14831 -3.94317 -22.0283 -8 0 1.13687e-13 10.2552 -61.2693 -2.12512 -1.13687e-13 -45 -1 -7.34636 80.5639 16.7033 1.13687e-13 -41 -2 -18.5599 14.7014 14.1894 0 -7.5 12.5 1.39979e-06 -2.66382 -4.04819e-05 -1.13687e-13 0 4 12.3236 3.06936 -2.24187 
